<svg width="14" height="14" viewBox="0 0 14 14" fill="none" xmlns="http://www.w3.org/2000/svg">
<path d="M7.11403 4.71837L7.43803 5.47619C7.45999 5.54209 7.5204 5.58053 7.58081 5.58602L8.40453 5.6629C8.58025 5.67938 8.64615 5.89354 8.51985 6.00886L7.89931 6.55252C7.84989 6.59645 7.82792 6.66235 7.8444 6.72275L8.02561 7.53C8.06405 7.70024 7.88284 7.83203 7.72908 7.74417L7.02068 7.32132C6.96576 7.28838 6.89437 7.28838 6.83946 7.32132L6.13106 7.74417C5.98279 7.83203 5.79608 7.70024 5.83452 7.53L6.01574 6.72275C6.03221 6.66235 6.01025 6.59645 5.96082 6.55252L5.34029 6.00886C5.20849 5.89354 5.27988 5.67938 5.45561 5.6629L6.27933 5.58602C6.34523 5.58053 6.40014 5.54209 6.4276 5.48168L6.7516 4.72386C6.81749 4.55912 7.04264 4.55912 7.11403 4.71837Z" stroke="#F0C932" stroke-width="0.549146" stroke-miterlimit="10" stroke-linecap="round" stroke-linejoin="round"/>
<path d="M10.6655 6.32443C10.6797 4.2621 9.01937 2.57873 6.95703 2.56454C4.89469 2.55035 3.21132 4.2107 3.19713 6.27304C3.18294 8.33538 4.84329 10.0187 6.90563 10.0329C8.96797 10.0471 10.6513 8.38677 10.6655 6.32443Z" stroke="#F0C932" stroke-width="0.549146" stroke-miterlimit="10" stroke-linecap="round" stroke-linejoin="round"/>
<path d="M6.42208 9.99566L5.49402 12.3295L4.31885 10.9841L2.5451 11.1489L3.72028 8.20544" stroke="#F0C932" stroke-width="0.549146" stroke-miterlimit="10" stroke-linecap="round" stroke-linejoin="round"/>
<path d="M7.43254 9.99566L8.36609 12.3295L9.53577 10.9841L11.315 11.1489L10.1343 8.20544" stroke="#F0C932" stroke-width="0.549146" stroke-miterlimit="10" stroke-linecap="round" stroke-linejoin="round"/>
</svg>
