<svg width="30" height="30" viewBox="0 0 10 10" fill="none" xmlns="http://www.w3.org/2000/svg">
<path d="M4.82316 1.10734C4.88378 0.915495 5.15527 0.915495 5.21589 1.10735L6.08368 3.85387C6.11075 3.93953 6.19021 3.99776 6.28004 3.99776H9.10027C9.29836 3.99776 9.38222 4.2501 9.22352 4.36866L6.9321 6.08069C6.86193 6.13311 6.83261 6.22418 6.85899 6.3077L7.73189 9.07036C7.79215 9.26111 7.57252 9.41711 7.41227 9.29738L5.14278 7.60174C5.06969 7.54713 4.96937 7.54713 4.89627 7.60174L2.62678 9.29738C2.46653 9.41711 2.2469 9.26111 2.30716 9.07036L3.18006 6.3077C3.20645 6.22418 3.17712 6.13311 3.10695 6.08069L0.815527 4.36866C0.656836 4.2501 0.740691 3.99776 0.938783 3.99776H3.75901C3.84884 3.99776 3.9283 3.93953 3.95537 3.85387L4.82316 1.10734Z" fill="#F1CC4A"/>
</svg>
